<svg width="16" height="16" viewBox="0 0 16 16" fill="none" xmlns="http://www.w3.org/2000/svg">
<g id="Edit">
<path id="Vector" fill-rule="evenodd" clip-rule="evenodd" d="M13.2386 12.9012H8.9873C8.7113 12.9012 8.4873 13.1252 8.4873 13.4012C8.4873 13.6772 8.7113 13.9012 8.9873 13.9012H13.2386C13.5146 13.9012 13.7386 13.6772 13.7386 13.4012C13.7386 13.1252 13.5146 12.9012 13.2386 12.9012Z" fill="white"/>
<path id="Vector_2" fill-rule="evenodd" clip-rule="evenodd" d="M6.4116 5.56224C6.47789 5.47407 6.60307 5.45623 6.69135 5.52237L10.1447 8.10933C10.2332 8.1756 10.2511 8.30107 10.1847 8.38947L6.97155 12.6693C6.19825 13.7027 5.03158 13.9093 4.22491 13.9093C3.72491 13.9093 3.36491 13.8293 3.32491 13.8227C3.23825 13.8027 3.15825 13.7427 3.11158 13.6627C3.06491 13.576 1.91825 11.536 3.19825 9.836L6.4116 5.56224Z" fill="white"/>
<path id="Vector_3" fill-rule="evenodd" clip-rule="evenodd" d="M11.4713 6.676L11.0246 7.2698C10.9584 7.35794 10.8332 7.3758 10.7449 7.30967L7.29103 4.7223C7.20276 4.65619 7.1847 4.5311 7.25063 4.44269L7.69796 3.84266C8.15796 3.22266 8.8713 2.896 9.5913 2.896C10.0846 2.896 10.578 3.04933 11.0046 3.36933C11.5046 3.74933 11.8313 4.30266 11.9246 4.92266C12.0113 5.54933 11.8513 6.16933 11.4713 6.676Z" fill="white"/>
</g>
</svg>
