<svg width="22" height="22" viewBox="0 0 22 22" fill="none" xmlns="http://www.w3.org/2000/svg">
<g id="Edit">
<path id="Vector" fill-rule="evenodd" clip-rule="evenodd" d="M18.204 17.7391H12.3584C11.9789 17.7391 11.6709 18.0471 11.6709 18.4266C11.6709 18.8061 11.9789 19.1141 12.3584 19.1141H18.204C18.5835 19.1141 18.8915 18.8061 18.8915 18.4266C18.8915 18.0471 18.5835 17.7391 18.204 17.7391Z" fill="#1BC738"/>
<path id="Vector_2" fill-rule="evenodd" clip-rule="evenodd" d="M8.81558 7.64808C8.90673 7.52684 9.07885 7.50231 9.20024 7.59325L13.9486 11.1503C14.0702 11.2414 14.0949 11.414 14.0036 11.5355L9.58552 17.4203C8.52222 18.8412 6.91805 19.1253 5.80889 19.1253C5.12139 19.1253 4.62639 19.0153 4.57139 19.0062C4.45222 18.9787 4.34222 18.8962 4.27805 18.7862C4.21389 18.667 2.63722 15.862 4.39722 13.5245L8.81558 7.64808Z" fill="#1BC738"/>
<path id="Vector_3" fill-rule="evenodd" clip-rule="evenodd" d="M15.773 9.17944L15.1589 9.99592C15.0677 10.1171 14.8956 10.1417 14.7742 10.0507L10.0252 6.49311C9.9038 6.4022 9.87896 6.23021 9.96962 6.10864L10.5847 5.2836C11.2172 4.4311 12.198 3.98193 13.188 3.98193C13.8664 3.98193 14.5447 4.19277 15.1314 4.63277C15.8189 5.15527 16.268 5.9161 16.3964 6.7686C16.5155 7.63027 16.2955 8.48277 15.773 9.17944Z" fill="#1BC738"/>
</g>
</svg>
