<svg width="212" height="163" viewBox="0 0 212 163" fill="none" xmlns="http://www.w3.org/2000/svg">
<path d="M0.824219 63.8482L8.01027 63.1482L8.77146 66.4028L0.824219 63.8482Z" fill="#D9805D"/>
<path d="M108.355 67.9045C108.355 67.9045 77.4262 68.9107 73.1852 67.9045C68.9442 66.8963 62.2109 66.1709 59.7167 67.9045C57.2224 69.6381 29.2099 72.1985 22.8845 71.9645C18.784 71.8124 14.5762 67.5613 12.648 63.944L8.64702 56.4344C8.20789 56.1087 7.57361 56.331 7.44285 56.8614C7.15595 58.0198 7.41553 66.2216 9.15447 69.6966C10.7314 72.8478 9.78094 78.3684 12.1113 79.008C14.7246 79.7237 15.5111 78.4503 16.8148 77.8633C16.8148 77.8633 22.8006 78.3625 27.0416 80.6051C31.2826 82.8476 51.9841 84.2185 63.2082 80.2931C63.2082 80.2931 95.6413 90.2461 113.361 84.3784L108.355 67.9045Z" fill="#A36046"/>
<path d="M110.228 73.0859C110.228 73.0859 79.614 77.5944 75.2871 77.0738C70.9602 76.5531 64.186 76.596 61.9045 78.6006C59.623 80.6053 32.0828 86.3248 25.773 86.8103C21.6823 87.1243 19.4378 88.5166 15.8389 85.5038L8.49278 78.7957C8.01852 78.5226 7.41548 78.8152 7.34522 79.3573C7.19103 80.5409 8.77385 85.7534 12.1815 89.2089C14.6562 91.7186 13.4813 94.6592 15.8701 95.0278C18.5479 95.4412 19.1841 94.0878 20.4137 93.3585C20.4137 93.3585 26.417 93.1752 30.8844 94.9224C35.3518 96.6697 56.0768 95.6849 66.7817 90.5115C66.7817 90.5115 100.136 96.7223 117.075 88.8832L110.228 73.0859Z" fill="#A36046"/>
<path d="M33.1264 99.3018H28.4697V163H33.1264V99.3018Z" fill="#A4A8B3"/>
<path d="M93.6537 132.441H30.7959V134.465H93.6537V132.441Z" fill="#A4A8B3"/>
<path d="M10.851 109.645L10.851 109.645L9.34434 101.285C8.73934 97.9229 10.9749 94.7047 14.3419 94.1002L14.3419 94.1002L70.441 84.0107C73.8061 83.4062 77.027 85.642 77.632 89.004L77.7304 88.9863L77.632 89.004L79.1387 97.3638C79.7436 100.726 77.5081 103.942 74.1411 104.549L18.042 114.638C14.6769 115.243 11.456 113.009 10.851 109.645Z" fill="#E1FCD6" stroke="#2F353B" stroke-width="0.2"/>
<path d="M138.321 103.451H81.32C77.8993 103.451 75.1278 100.682 75.1278 97.2642V88.7699C75.1278 85.3521 77.8993 82.5829 81.32 82.5829H138.321C141.74 82.5829 144.513 85.3522 144.513 88.7699V97.2642C144.513 100.682 141.742 103.451 138.321 103.451Z" fill="#E1FCD6" stroke="#2F353B" stroke-width="0.2"/>
<path d="M88.9761 84.6258C88.9761 84.6258 81.8114 86.2267 83.0664 76.4375C84.3194 66.6484 77.8222 63.306 83.0664 63.15C88.3105 62.994 114.022 66.8824 122.449 64.1075C130.879 61.3326 133.65 57.6782 133.65 57.6782L171.659 45.937C171.659 45.937 171.895 55.5741 169.567 59.6711C167.238 63.7701 154.578 76.4375 154.578 76.4375C154.578 76.4375 127.875 98.5061 88.9761 84.6258Z" fill="white"/>
<path d="M92.4932 80.605L94.3824 76.1725C95.4441 73.6784 97.6124 71.8259 100.243 71.1629L103.78 70.2717C105.009 69.9617 106.27 69.8057 107.537 69.8057H112.113C112.113 69.8057 113.029 73.2943 111.614 74.5404C110.203 75.7864 92.4932 80.605 92.4932 80.605Z" fill="#A36046"/>
<path d="M110.868 76.34C110.868 76.34 112.753 71.6326 111.145 69.3628C109.537 67.093 115.414 68.3098 116.411 67.9237C117.408 67.5356 118.905 73.7387 117.131 75.8993C115.357 78.0561 110.868 76.34 110.868 76.34Z" fill="white"/>
<path d="M117.955 73.1929C117.892 73.191 117.846 73.1422 117.848 73.0837C117.848 73.0369 117.932 68.4114 116.386 68.0273C115.589 67.8284 115.484 67.8674 115.31 67.9317C115.109 68.0058 114.834 68.1072 113.716 68.0117C112.34 67.8966 111.364 68.0955 111.105 68.546C110.985 68.7507 111.03 69.0042 111.235 69.3006C111.268 69.3494 111.257 69.4157 111.208 69.4508C111.159 69.484 111.093 69.4723 111.058 69.4235C110.738 68.9633 110.804 68.6337 110.917 68.4387C111.224 67.9064 112.25 67.6724 113.733 67.7972C114.805 67.8869 115.055 67.7952 115.236 67.7289C115.467 67.6451 115.615 67.6119 116.438 67.8167C118.15 68.2418 118.068 72.8887 118.064 73.0876C118.06 73.1461 118.013 73.1929 117.955 73.1929Z" fill="#2F353B"/>
<path d="M210.065 38.0894L210.065 38.0894C204.732 42.2341 197.207 48.9391 192.186 57.0232L192.271 57.0759L192.186 57.0232C190.055 60.4554 188.648 64.3704 187.737 68.3149C186.483 73.7452 187.163 79.4023 189.345 84.5268L189.437 84.4876L189.345 84.5268C190.235 86.6168 190.728 88.9162 190.728 91.3322V145.487C190.728 155.102 182.927 162.898 173.302 162.898H104.982C95.3584 162.898 87.5556 155.104 87.5556 145.487V91.3322C87.5556 81.7173 95.3565 73.9209 104.982 73.9209H142.657C147.159 73.9209 151.628 72.9958 155.711 71.0957C158.654 69.7262 161.713 67.7341 164.427 64.8431C166.454 62.6845 168.595 59.5276 169.897 55.9154C171.197 52.307 171.661 48.2382 170.328 44.256L170.327 44.2383C170.327 44.2294 170.327 44.2185 170.327 44.2059C170.326 44.1883 170.326 44.1672 170.326 44.1427C170.325 44.0582 170.326 43.9327 170.332 43.77C170.343 43.4447 170.374 42.9708 170.451 42.3787C170.604 41.1945 170.943 39.5378 171.682 37.6513C173.161 33.8797 176.244 29.1858 182.665 25.5097C183.39 25.0949 184.055 24.6858 184.676 24.303C184.999 24.1042 185.31 23.9125 185.612 23.7308C186.499 23.1977 187.311 22.7485 188.127 22.4441C189.751 21.8387 191.398 21.8024 193.677 22.8597L193.719 22.769L193.677 22.8597L209.287 30.0987C209.288 30.0989 209.288 30.0992 209.289 30.0995C212.401 31.6739 212.821 35.9509 210.065 38.0894Z" fill="#E1FCD6" stroke="#2F353B" stroke-width="0.2"/>
<path d="M170.164 45.6917L170.562 44.3208L173.675 33.5858L164.026 31.6631L163.288 31.5168L159.047 38.2776L156.032 43.0845L153.504 47.1152C153.504 47.1152 157.016 49.4494 162.271 48.1936C162.271 48.1897 167.459 47.1717 170.164 45.6917Z" fill="#A36046"/>
<path d="M163.288 31.5168L159.047 38.2776C162.941 39.0557 165.978 35.376 165.978 35.376L164.026 31.6651L163.288 31.5168Z" fill="#754532"/>
<path d="M160.407 20.6727C153.198 28.6757 154.738 32.525 158.104 34.7676C160.954 36.665 169.428 38.2211 174.43 32.6069C179.432 26.9928 183.351 21.2577 178.615 17.0476C173.878 12.8336 164.459 13.169 160.407 20.6727Z" fill="#A36046"/>
<path d="M161.651 19.8555C161.651 19.8555 157.386 22.6479 156.574 23.2193C155.499 23.9739 156.473 24.8105 157.962 26.078C159.152 27.094 161.651 19.8555 161.651 19.8555Z" fill="#A36046"/>
<path d="M163.175 18.2974C162.87 18.5022 163.064 19.327 163.608 20.1402C164.153 20.9534 164.842 21.4487 165.146 21.2439C165.451 21.0392 165.257 20.2143 164.713 19.4011C164.168 18.588 163.479 18.0927 163.175 18.2974Z" fill="#2F353B"/>
<path d="M163.444 22.6908C161.834 24.3191 159.894 23.3538 160.532 21.082C160.558 20.9943 160.692 21.0157 160.692 21.1054C160.815 23.1276 161.598 23.4104 163.349 22.5621C163.425 22.5172 163.509 22.6264 163.444 22.6908Z" fill="#2F353B"/>
<path d="M156.537 28.1139C156.192 28.1139 155.893 28.069 155.87 28.0671C155.811 28.0593 155.77 28.0027 155.78 27.9442C155.788 27.8857 155.845 27.8467 155.903 27.8545C155.913 27.8565 156.832 27.991 157.256 27.7863C157.308 27.7609 157.373 27.7824 157.4 27.835C157.425 27.8877 157.404 27.952 157.351 27.9793C157.133 28.0846 156.82 28.1139 156.537 28.1139Z" fill="#2F353B"/>
<path d="M173.24 36.9806C176.673 36.6121 177.446 35.3718 180.131 33.2911C182.444 31.4971 185.093 29.1356 186.092 26.3978C186.724 24.6642 187.208 23.1646 187.105 21.3238C187.015 19.7169 186.898 18.2135 187.286 16.6359C188.295 12.5408 191.428 8.93908 188.676 4.66655C186.466 1.23643 182.272 -1.1192 179.558 1.95211C175.26 2.31092 175.028 7.56625 172.284 9.18089C169.856 10.6083 165.398 12.3633 165.361 15.7155C165.342 17.4919 166.932 18.1296 167.961 19.3308C169.073 20.6276 169.268 22.211 169.337 23.7847C169.337 23.7828 167.063 37.6456 173.24 36.9806Z" fill="white"/>
<path d="M184.087 9.99029C184.064 9.99029 184.043 9.98249 184.023 9.96884C183.785 9.78944 178.227 5.56565 179.614 2.91165C179.642 2.859 179.706 2.8395 179.759 2.8668C179.811 2.8941 179.831 2.95845 179.804 3.0111C178.502 5.5052 184.095 9.75629 184.152 9.79919C184.199 9.83429 184.208 9.90255 184.173 9.94935C184.152 9.97665 184.121 9.99029 184.087 9.99029Z" fill="#2F353B"/>
<path d="M181.589 19.2471C181.574 19.2471 181.556 19.2432 181.54 19.2354C181.47 19.2003 174.501 15.5869 175.057 10.1775C175.063 10.119 175.117 10.0741 175.174 10.0819C175.233 10.0878 175.276 10.1404 175.27 10.1989C174.729 15.4621 181.568 19.0092 181.638 19.0443C181.691 19.0716 181.712 19.136 181.685 19.1886C181.665 19.2257 181.628 19.2471 181.589 19.2471Z" fill="#2F353B"/>
<path d="M176.177 34.5764C176.148 34.5764 176.119 34.5647 176.097 34.5413C176.058 34.4965 176.062 34.4282 176.107 34.3892C176.169 34.3327 182.463 28.7243 184.392 24.8984C185.297 23.1043 185.303 20.6629 185.309 18.3014C185.317 15.5304 185.323 12.9115 186.706 11.3554C186.746 11.3105 186.814 11.3066 186.859 11.3456C186.904 11.3846 186.908 11.4529 186.868 11.4977C185.539 12.9915 185.533 15.5714 185.526 18.3014C185.52 20.6863 185.512 23.1531 184.585 24.9939C182.637 28.8569 176.314 34.4926 176.251 34.5491C176.23 34.5667 176.203 34.5764 176.177 34.5764Z" fill="#2F353B"/>
<path d="M141.464 52.3606C141.464 52.3606 147.673 47.3002 152.493 45.1337C157.302 42.9731 168.829 43.8077 171.659 41.647C174.489 39.4864 173.817 47.9593 171.659 49.2054C169.5 50.4515 152.041 50.9507 151.043 53.1932C150.046 55.4358 131.339 60.42 131.589 57.9279C131.839 55.4338 137.786 54.529 141.464 52.3606Z" fill="white"/>
<path d="M135.256 58.7139C135.197 58.7139 135.148 58.6671 135.148 58.6066C135.148 58.5481 135.195 58.4994 135.256 58.4994C143.849 58.4331 150.293 53.7783 152.411 52.2475L152.501 52.1832C154.456 50.7714 169.102 49.6677 169.724 49.6209C169.781 49.617 169.836 49.6599 169.84 49.7203C169.843 49.7788 169.799 49.8315 169.74 49.8354C169.588 49.8471 154.532 50.982 152.626 52.3587L152.536 52.4231C150.405 53.9616 143.917 58.6476 135.256 58.7139Z" fill="#2F353B"/>
<path d="M76.0595 83.1481C76.0517 83.1481 76.0438 83.1481 76.036 83.1461C73.1534 82.524 68.5143 81.5744 66.0044 81.0654C64.8529 80.8314 63.678 80.7846 62.5089 80.927L48.8843 82.5923C48.8277 82.6001 48.7711 82.5572 48.7652 82.4987C48.7593 82.4402 48.8003 82.3856 48.8589 82.3797L62.4836 80.7144C63.6741 80.5682 64.8724 80.6169 66.0474 80.8548C68.5572 81.3638 73.1983 82.3134 76.0829 82.9355C76.1414 82.9472 76.1785 83.0057 76.1648 83.0622C76.1531 83.1149 76.1083 83.1481 76.0595 83.1481Z" fill="#2F353B"/>
<path d="M94.2455 97.5235C93.5936 97.5235 93.0003 97.4864 92.4792 97.4084C91.3023 97.2309 90.4866 96.6869 90.0552 95.788C88.529 92.6152 92.2431 86.147 92.4031 85.874C92.4324 85.8233 92.4987 85.8057 92.5495 85.835C92.6002 85.8642 92.6178 85.9305 92.5885 85.9812C92.5495 86.0475 88.773 92.625 90.2484 95.6963C90.6485 96.527 91.4097 97.0321 92.5104 97.1978C96.6324 97.8179 105.573 95.6904 113.462 93.8125C117.266 92.9077 120.861 92.0517 123.819 91.5095C133.033 89.8228 149.56 89.3489 149.726 89.345C149.786 89.345 149.835 89.3918 149.837 89.4484C149.839 89.5069 149.792 89.5576 149.734 89.5595C149.568 89.5634 133.057 90.0353 123.86 91.7202C120.905 92.2603 117.314 93.1164 113.512 94.0212C106.258 95.745 98.789 97.5215 94.2455 97.5235Z" fill="#2F353B"/>
<path d="M136.806 69.162C136.513 69.162 136.133 69.0781 135.689 68.9085C134.411 68.421 133.993 67.834 133.687 67.403C133.568 67.2353 133.465 67.0891 133.332 66.9799C132.869 66.7147 124.725 67.7424 119.366 68.499C119.305 68.5068 119.252 68.4658 119.245 68.4073C119.237 68.3488 119.278 68.2942 119.336 68.2864C121.608 67.9666 132.961 66.391 133.47 66.8141C133.623 66.9409 133.74 67.1047 133.863 67.2782C134.169 67.7092 134.55 68.2435 135.768 68.7076C136.622 69.0333 137.112 68.9865 137.204 68.8071C137.282 68.655 137.095 68.3254 136.585 67.9958C135.723 67.4342 135.096 66.5021 135.272 66.0439C135.319 65.9229 135.463 65.728 135.912 65.7962L136.099 65.8254C136.919 65.9503 137.473 66.0361 137.793 66.2486C137.686 66.0224 137.485 65.6851 137.145 65.3087C137.095 65.2522 137.075 65.18 137.091 65.1059C137.192 64.6398 138.873 63.891 141.833 62.6079C144.843 61.3033 148.965 59.5171 148.922 58.6123C148.891 57.9356 149.033 57.4247 149.345 57.0971C149.683 56.7441 150.093 56.7402 150.109 56.7402C150.167 56.7402 150.216 56.789 150.216 56.8475C150.216 56.906 150.167 56.9547 150.109 56.9547C150.107 56.9547 149.769 56.9606 149.498 57.2492C149.228 57.5339 149.107 57.9902 149.137 58.6025C149.183 59.5775 146.174 60.9601 141.917 62.8048C139.792 63.7272 137.382 64.7705 137.298 65.1507C137.825 65.7475 138.156 66.4066 138.092 66.586C138.078 66.623 138.033 66.662 137.994 66.6679C137.914 66.6796 137.852 66.6133 137.801 66.545C137.592 66.2681 136.985 66.1745 136.064 66.0341L135.877 66.0049C135.721 65.9815 135.522 65.9814 135.471 66.116C135.348 66.4378 135.891 67.2841 136.7 67.8125C137.278 68.1889 137.544 68.6062 137.393 68.9007C137.306 69.0762 137.101 69.162 136.806 69.162Z" fill="#2F353B"/>
</svg>
