<svg width="85" height="172" viewBox="0 0 85 172" fill="none" xmlns="http://www.w3.org/2000/svg">
<path d="M45.0951 120.843V166.088C45.0951 169.122 42.6341 171.583 39.5953 171.583H6.92416C6.77974 171.583 6.63918 171.577 6.49671 171.565C5.76288 171.509 5.06617 171.308 4.44163 170.99C4.24256 170.891 4.05126 170.777 3.86585 170.655C2.39428 169.668 1.42432 167.989 1.42432 166.086V120.841C1.42432 119.012 2.31819 117.393 3.69217 116.393C3.87758 116.258 4.07079 116.135 4.27181 116.026C5.05834 115.591 5.96199 115.344 6.92416 115.344H39.5953C42.6341 115.346 45.0951 117.807 45.0951 120.843Z" fill="#D68D60"/>
<path d="M46.5745 159.184L46.3521 162.238L46.0808 167.751C46.0515 168.344 46.4106 168.888 46.9688 169.091C49.2074 169.902 55.2205 171.606 62.3598 169.746C71.4312 167.382 71.1501 166.403 66.9852 164.859C66.3646 164.629 65.7127 164.405 65.0452 164.18C61.2297 162.895 53.9207 162.09 53.704 159.184H46.5745Z" fill="#D9805D"/>
<path d="M46.9705 169.092C49.209 169.904 55.2221 171.608 62.3614 169.748C71.4328 167.384 71.1518 166.405 66.9869 164.861C66.3663 164.631 65.7144 164.406 65.0469 164.182C58.7625 168.607 48.2605 166.563 46.3538 162.24L46.0824 167.753C46.0512 168.346 46.4123 168.89 46.9705 169.092Z" fill="#A36046"/>
<path d="M46.1355 119.288L18.0821 121.246C-12.4071 121.471 5.40395 91.4849 5.40395 91.4849L30.2547 94.9384C30.2547 94.9384 57.1762 103.173 65.0239 107.216C71.7631 110.687 56.9693 159.547 56.9693 159.547H44.5683C44.5683 159.547 42.3434 128.832 46.8713 120.41C47.1543 119.879 46.7347 119.248 46.1355 119.288Z" fill="#D7D991"/>
<path d="M15.2368 29.5127L15.9492 28.2764L21.5232 18.5867L29.6071 24.1911L30.2238 24.6181L28.2975 32.3617L26.9274 37.8667L25.7798 42.4824C25.7798 42.4824 21.6598 41.5776 18.9177 36.9248C18.9138 36.9248 16.0487 32.4865 15.2368 29.5127Z" fill="#D9805D"/>
<path d="M30.2213 24.618L28.295 32.3616C25.0318 30.1015 25.5743 25.3629 25.5743 25.3629L29.6026 24.1909L30.2213 24.618Z" fill="#AD5B3B"/>
<path d="M32.7629 76.0718L36.1803 62.2168C38.5399 54.4985 34.1369 47.1313 28.114 39.374C27.7236 38.8709 27.3275 38.3698 26.9254 37.8647C26.9254 37.8647 24.0409 37.2563 21.6676 35.0391C19.6691 33.1749 15.9453 28.2744 15.9453 28.2744C15.7501 28.5611 15.5549 28.8477 15.3656 29.1363C-2.60155 56.2555 3.5033 91.5921 3.5033 91.5921C16.7318 100.478 30.4697 93.4914 30.4697 93.4914C30.4697 93.4914 31.3421 81.8322 32.7629 76.0718Z" fill="#7F8F5E"/>
<path d="M74.5911 74.6484C77.0346 74.8161 80.6335 75.3153 82.3861 75.8769C82.8643 76.0309 83.0848 76.8344 82.2924 77.004C81.785 77.1113 78.4613 77.5461 72.575 76.807C72.4618 76.7934 72.3896 76.9319 72.4735 77.006C72.5086 77.0372 72.5633 77.0703 72.6414 77.1015C72.7429 77.1444 79.0741 78.3086 79.1834 78.3339C82.1909 79.0457 84.6305 79.2777 84.328 80.3347C83.9826 81.5437 74.7101 79.8238 72.1925 79.658C71.9817 79.6444 71.9212 79.7321 71.9134 79.8277C71.9056 79.9466 71.9954 80.046 72.1125 80.0636C72.778 80.1611 75.5045 80.5745 77.7899 81.1712C80.491 81.8752 82.7042 82.5128 83.079 83.0901C83.1395 83.1837 83.1531 83.2753 83.1121 83.365C83.038 83.5269 82.8311 83.6419 82.5169 83.7121C80.9711 84.067 76.8062 83.404 72.8053 82.585C72.4071 82.5051 72.011 82.4212 71.6206 82.3373C70.9981 82.2047 71.1893 82.9984 75.2976 84.6286C75.5259 84.7203 75.768 84.812 76.0217 84.9095C79.8938 86.3739 79.0663 86.7678 79.0663 86.7678C78.9765 86.8263 78.8633 86.8712 78.7326 86.9024C78.5686 86.9433 78.3715 86.9648 78.1529 86.9706C75.9163 87.0272 71.2069 85.3229 70.8419 85.2936C64.3604 84.7983 60.2619 80.947 60.2619 80.947C60.2619 80.947 35.5302 92.5458 29.3277 88.402C23.1253 84.2581 16.23 64.8689 16.23 64.8689C16.23 64.8689 20.9569 58.3929 27.2843 56.4097C27.2843 56.4097 34.3474 74.857 35.5887 75.1749C36.83 75.4927 60.8103 73.5797 60.8103 73.5797C60.8103 73.5797 65.2113 72.5872 66.9151 72.9187C68.6189 73.2463 73.3694 74.545 74.5911 74.6484Z" fill="#D9805D"/>
<path d="M40.0331 19.1637C39.2719 29.9045 35.431 31.4685 31.4789 30.6046C28.1337 29.8733 21.1311 24.8578 21.7029 17.3639C22.2748 9.86986 23.6858 3.07007 30.0073 3.55173C36.3288 4.03339 42.6249 11.0418 40.0331 19.1637Z" fill="#D9805D"/>
<path d="M16.9556 25.5463C17.1371 25.7881 17.4806 25.8447 17.7831 25.8564C18.8682 25.8993 23.6498 24.544 25.539 22.5784C25.9021 22.2001 26.1558 21.8179 26.3236 21.4376C27.5395 18.7037 29.7371 16.543 32.5612 15.5426C35.4536 14.5189 38.3538 12.9803 39.3277 10.7768C41.4902 5.88217 30.4183 -4.10008 22.149 1.82413C16.4442 5.91726 8.44037 14.2732 16.9556 25.5463Z" fill="#2F353B"/>
<path d="M30.1962 18.9981C29.8898 20.72 28.6036 21.931 27.3253 21.7028C26.0469 21.4747 25.2584 19.8971 25.5629 18.1752C25.8693 16.4533 27.1535 15.2423 28.4338 15.4705C29.7141 15.6967 30.5026 17.2762 30.1962 18.9981Z" fill="#D9805D"/>
<path d="M39.7577 17.7012C39.7577 17.7012 40.7062 22.7069 40.8584 23.6878C41.0614 24.9865 39.783 24.8637 37.8352 24.6745C36.2778 24.5224 39.7577 17.7012 39.7577 17.7012Z" fill="#D9805D"/>
<path d="M39.8217 15.5231C39.8861 15.8839 39.1581 16.3168 38.194 16.4904C37.2299 16.6639 36.3965 16.5118 36.3301 16.151C36.2657 15.7903 36.9937 15.3554 37.9579 15.1838C38.9239 15.0103 39.7573 15.1624 39.8217 15.5231Z" fill="#2F353B"/>
<path d="M36.4961 18.3118C37.7589 16.7186 39.9623 16.9682 39.6676 19.3102C39.6539 19.3999 39.5173 19.396 39.5056 19.3083C39.0977 17.3348 38.0555 17.5727 36.5995 18.4327C36.5273 18.4795 36.4395 18.3781 36.4961 18.3118Z" fill="#2F353B"/>
<path d="M39.1835 18.8752C39 19.4953 38.5335 19.9048 38.1413 19.7897C37.749 19.6747 37.5831 19.076 37.7665 18.4559C37.952 17.8358 38.4164 17.4263 38.8087 17.5413C39.1991 17.6583 39.3669 18.2551 39.1835 18.8752Z" fill="#2F353B"/>
<path d="M37.9609 27.1473C37.9531 27.1473 37.9473 27.1473 37.9414 27.1453C37.9063 27.1395 37.0678 26.9718 36.8923 26.4336C36.8747 26.377 36.904 26.3166 36.9605 26.299C37.0171 26.2815 37.0775 26.3107 37.0951 26.3673C37.2316 26.7846 37.9726 26.9328 37.9804 26.9347C38.0389 26.9464 38.076 27.003 38.0662 27.0595C38.0565 27.1122 38.0116 27.1473 37.9609 27.1473Z" fill="#2F353B"/>
<path d="M14.2512 18.4697C14.2512 18.4697 7.57834 19.4292 7.08066 25.8643C6.58103 32.2994 7.58029 44.7348 2.5918 48.4867C2.5918 48.4867 2.68158 49.9687 6.25315 48.4867C9.82473 47.0046 16.0603 33.4733 13.8159 28.2765C11.5715 23.0796 15.2367 20.878 15.2367 20.878L14.2512 18.4697Z" fill="#2F353B"/>
<path d="M28.1136 39.376C26.2595 38.8865 23.2383 37.9856 21.6672 36.9384C19.8131 35.7002 16.6475 31.0786 15.3652 29.1402C15.5545 28.8497 15.7497 28.565 15.9449 28.2783C15.9449 28.2783 19.6687 33.1768 21.6672 35.043C24.0405 37.2602 26.925 37.8686 26.925 37.8686C27.3271 38.3717 27.7232 38.8729 28.1136 39.376Z" fill="white"/>
<path d="M15.8863 65.1261C15.8863 65.1261 22.6684 58.108 27.733 56.3334L26.7767 53.6755C26.7767 53.6755 18.4626 57.6205 14.7212 62.9382L15.8863 65.1261Z" fill="white"/>
<path d="M13.8082 62.17C13.777 62.17 13.7457 62.1563 13.7242 62.129L11.9775 59.9294C11.9404 59.8826 11.9482 59.8163 11.9951 59.7792C12.0419 59.7422 12.1083 59.75 12.1454 59.7968L13.8921 61.9964C13.9292 62.0432 13.9214 62.1095 13.8745 62.1466C13.855 62.1641 13.8316 62.17 13.8082 62.17Z" fill="white"/>
<path d="M26.4208 52.9951C26.3837 52.9951 26.3467 52.9756 26.3272 52.9405C26.1068 52.5544 25.0265 50.6063 25.4575 50.0779C25.4945 50.0311 25.5628 50.0252 25.6076 50.0622C25.6544 50.0993 25.6603 50.1675 25.6232 50.2124C25.3619 50.5342 26.0308 51.9908 26.5124 52.8333C26.5417 52.884 26.5241 52.9503 26.4734 52.9795C26.4578 52.9893 26.4383 52.9951 26.4208 52.9951Z" fill="white"/>
<path d="M10.9799 47.346C10.9545 47.346 10.9291 47.3382 10.9096 47.3187C10.8647 47.2797 10.8608 47.2115 10.8998 47.1666C11.1945 46.8312 18.1328 38.9745 20.5119 40.3317C22.8539 41.6694 23.3457 43.6487 23.3653 43.7326C23.3789 43.7911 23.3438 43.8477 23.2852 43.8613C23.2267 43.873 23.1701 43.8398 23.1564 43.7813C23.1525 43.7618 22.6626 41.806 20.4045 40.517C18.1796 39.2475 11.1321 47.2251 11.0599 47.307C11.0404 47.3324 11.0092 47.346 10.9799 47.346Z" fill="white"/>
</svg>
