<svg width="22" height="22" viewBox="0 0 22 22" fill="none" xmlns="http://www.w3.org/2000/svg">
<path d="M2.68621 20.7005C2.50344 20.8899 2.25236 20.9976 1.98921 21C1.7261 21.0022 1.47327 20.8986 1.28723 20.7128C1.10138 20.5267 0.997843 20.2739 1.00003 20.0108C1.00244 19.7477 1.11014 19.4966 1.29949 19.3138M2.68621 20.7005L2.79228 20.8066L2.79318 20.8057C2.58248 21.0234 2.29339 21.1472 1.99059 21.15L1.99046 21.15C1.68713 21.1525 1.39567 21.0331 1.18122 20.8189L1.1811 20.8188C0.966887 20.6043 0.847513 20.3129 0.850039 20.0095L0.85004 20.0094C0.852811 19.7066 0.97659 19.4175 1.19436 19.2068L1.19342 19.2077L1.29949 19.3138M2.68621 20.7005L10.8939 12.4928L2.68621 20.7005ZM1.29949 19.3138L1.1953 19.2059M1.29949 19.3138L9.50721 11.1061L9.40114 11M1.1953 19.2059L20.7128 1.28723C20.5267 1.10138 20.2739 0.997845 20.0108 1.00003C19.7476 1.00244 19.4966 1.11014 19.3138 1.29949L11.1061 9.50721L11 9.40114M1.1953 19.2059L9.40114 11M1.1953 19.2059L12.5989 11M9.40114 11L9.50721 10.8939L1.29949 2.68621M9.40114 11L1.19433 2.79318M1.29949 2.68621C1.11014 2.50344 1.00244 2.25236 1.00003 1.98922C0.997845 1.7261 1.10138 1.47327 1.28723 1.28723C1.47329 1.10138 1.72612 0.997843 1.98921 1.00003C2.25233 1.00244 2.50341 1.11014 2.68621 1.29949M1.29949 2.68621L1.19342 2.79228L1.19433 2.79318M1.29949 2.68621L1.19531 2.79414C1.19498 2.79382 1.19465 2.7935 1.19433 2.79318M2.68621 1.29949L10.8939 9.50721L11 9.40114M2.68621 1.29949L2.79413 1.1953C2.79381 1.19498 2.7935 1.19465 2.79318 1.19432M2.68621 1.29949L2.79228 1.19342L2.79318 1.19432M11 9.40114L19.2059 1.19531C19.2062 1.19499 19.2065 1.19466 19.2068 1.19433C19.4175 0.976582 19.7066 0.852813 20.0094 0.85004L20.0095 0.850039C20.3129 0.847516 20.6043 0.966885 20.8188 1.18111L20.8189 1.18122C21.0331 1.39569 21.1525 1.68714 21.15 1.99046V1.99059C21.1472 2.29339 21.0234 2.58248 20.8057 2.79321C20.8053 2.79351 20.805 2.79382 20.8047 2.79413L12.5989 11M11 9.40114L2.79318 1.19432M12.5989 11L20.8047 19.2059C20.805 19.2062 20.8053 19.2065 20.8057 19.2068C21.0234 19.4175 21.1472 19.7066 21.15 20.0094L21.15 20.0095C21.1525 20.3129 21.0331 20.6043 20.8189 20.8188L20.8188 20.8189C20.6043 21.0331 20.3129 21.1525 20.0095 21.15H20.0094C19.7066 21.1472 19.4175 21.0234 19.2068 20.8056C19.2065 20.8053 19.2062 20.805 19.2059 20.8047L11 12.5989L2.79414 20.8047L12.5989 11ZM2.79318 1.19432C2.58245 0.976576 2.29337 0.852811 1.99059 0.85004L1.99046 0.850039C1.68714 0.847513 1.39569 0.966887 1.18122 1.1811L1.1811 1.18122C0.966885 1.39567 0.847516 1.68713 0.850039 1.99046L0.85004 1.99059C0.852813 2.2934 0.976579 2.58248 1.19433 2.79318" fill="#152A16" stroke="#152A16" stroke-width="0.3"/>
</svg>
