<svg width="18" height="18" viewBox="0 0 18 18" fill="none" xmlns="http://www.w3.org/2000/svg">
<path fill-rule="evenodd" clip-rule="evenodd" d="M7.194 11.405C9.96075 11.405 12.3255 11.8243 12.3255 13.499C12.3255 15.1738 9.9765 15.605 7.194 15.605C4.4265 15.605 2.0625 15.1895 2.0625 13.514C2.0625 11.8385 4.41075 11.405 7.194 11.405Z" stroke="#5C635A" stroke-width="1.3" stroke-linecap="round" stroke-linejoin="round"/>
<path fill-rule="evenodd" clip-rule="evenodd" d="M7.1938 9.01476C5.3773 9.01476 3.9043 7.54251 3.9043 5.72601C3.9043 3.90951 5.3773 2.43726 7.1938 2.43726C9.00955 2.43726 10.4826 3.90951 10.4826 5.72601C10.4893 7.53576 9.0268 9.00801 7.21705 9.01476H7.1938Z" stroke="#5C635A" stroke-width="1.3" stroke-linecap="round" stroke-linejoin="round"/>
<path d="M12.3623 8.16121C13.5631 7.99246 14.4878 6.96195 14.4901 5.7147C14.4901 4.48545 13.5938 3.46546 12.4186 3.27271" stroke="#5C635A" stroke-width="1.3" stroke-linecap="round" stroke-linejoin="round"/>
<path d="M13.9473 11.0491C15.1105 11.2223 15.9228 11.6303 15.9228 12.4703C15.9228 13.0486 15.5403 13.4236 14.9223 13.6583" stroke="#5C635A" stroke-width="1.3" stroke-linecap="round" stroke-linejoin="round"/>
</svg>
