<svg width="15" height="15" viewBox="0 0 15 15" fill="none" xmlns="http://www.w3.org/2000/svg">
<path d="M7.49542 1.25C10.4096 1.25 12.812 3.57368 12.812 6.4486C12.812 7.89731 12.2851 9.24227 11.4179 10.3822C10.4613 11.6397 9.28211 12.7353 7.95485 13.5953C7.65108 13.794 7.37693 13.809 7.04354 13.5953C5.70872 12.7353 4.52957 11.6397 3.58107 10.3822C2.71325 9.24227 2.18701 7.89731 2.18701 6.4486C2.18701 3.57368 4.58944 1.25 7.49542 1.25ZM7.49542 4.86052C6.5318 4.86052 5.7459 5.65487 5.7459 6.61047C5.7459 7.57357 6.5318 8.33104 7.49542 8.33104C8.45966 8.33104 9.25312 7.57357 9.25312 6.61047C9.25312 5.65487 8.45966 4.86052 7.49542 4.86052Z" fill="#5C635A"/>
</svg>
