<svg width="18" height="18" viewBox="0 0 18 18" fill="none" xmlns="http://www.w3.org/2000/svg">
<path fill-rule="evenodd" clip-rule="evenodd" d="M15.605 5.71765L15.1382 4.90758C14.7432 4.22214 13.868 3.98568 13.1817 4.37898C12.8549 4.57145 12.4651 4.62605 12.098 4.53075C11.731 4.43545 11.4169 4.19808 11.2251 3.87097C11.1017 3.66305 11.0354 3.42623 11.0329 3.18447C11.044 2.79686 10.8978 2.42124 10.6275 2.14319C10.3572 1.86514 9.9859 1.70834 9.59813 1.7085H8.65762C8.27772 1.7085 7.91348 1.85987 7.6455 2.12915C7.37752 2.39842 7.22788 2.76338 7.22971 3.14328C7.21845 3.92763 6.57936 4.55755 5.79492 4.55747C5.55316 4.55496 5.31634 4.48865 5.10843 4.36525C4.42205 3.97195 3.54683 4.20841 3.1519 4.89385L2.65076 5.71765C2.25631 6.40223 2.48955 7.27689 3.1725 7.67417C3.61643 7.93047 3.8899 8.40413 3.8899 8.91673C3.8899 9.42934 3.61643 9.903 3.1725 10.1593C2.49042 10.5539 2.25692 11.4264 2.65076 12.109L3.12444 12.9259C3.30948 13.2598 3.61995 13.5062 3.98714 13.6105C4.35434 13.7149 4.74798 13.6686 5.08097 13.482C5.40831 13.2909 5.79839 13.2386 6.1645 13.3366C6.53062 13.4346 6.84243 13.6747 7.03062 14.0037C7.15402 14.2116 7.22033 14.4484 7.22284 14.6902C7.22284 15.4826 7.86522 16.125 8.65762 16.125H9.59813C10.3879 16.125 11.0291 15.4868 11.0329 14.6971C11.0311 14.316 11.1816 13.95 11.4511 13.6805C11.7206 13.411 12.0866 13.2604 12.4677 13.2623C12.7089 13.2687 12.9447 13.3348 13.1542 13.4545C13.8388 13.8489 14.7134 13.6157 15.1107 12.9328L15.605 12.109C15.7963 11.7806 15.8488 11.3894 15.7509 11.0222C15.653 10.655 15.4127 10.342 15.0833 10.1524C14.7538 9.96291 14.5135 9.64987 14.4156 9.28265C14.3177 8.91542 14.3702 8.5243 14.5615 8.19591C14.6859 7.97869 14.866 7.79859 15.0833 7.67417C15.7621 7.27711 15.9948 6.40756 15.605 5.72451V5.71765Z" stroke="#152A16" stroke-width="1.3" stroke-linecap="round" stroke-linejoin="round"/>
<path d="M9.13129 10.8938C10.2232 10.8938 11.1084 10.0086 11.1084 8.91669C11.1084 7.82476 10.2232 6.93958 9.13129 6.93958C8.03936 6.93958 7.15417 7.82476 7.15417 8.91669C7.15417 10.0086 8.03936 10.8938 9.13129 10.8938Z" stroke="#152A16" stroke-width="1.3" stroke-linecap="round" stroke-linejoin="round"/>
</svg>
