<svg width="10" height="13" viewBox="0 0 10 13" fill="none" xmlns="http://www.w3.org/2000/svg">
<g clip-path="url(#clip0_1_767)">
<path d="M0 0.609375C0 0.272949 0.279948 0 0.625 0H9.375C9.72135 0 10 0.272949 10 0.609375C10 0.945801 9.72135 1.21875 9.375 1.21875H9.16667V1.70066C9.16667 2.72441 8.72656 3.68418 8.00781 4.43066L5.88281 6.5L8.00781 8.56934C8.72656 9.29297 9.16667 10.2756 9.16667 11.2988V11.7812H9.375C9.72135 11.7812 10 12.0529 10 12.3906C10 12.7283 9.72135 13 9.375 13H0.625C0.279948 13 0 12.7283 0 12.3906C0 12.0529 0.279948 11.7812 0.625 11.7812H0.833333V11.2988C0.833333 10.2756 1.25026 9.29297 1.99271 8.56934L4.11719 6.5L1.99271 4.43066C1.25026 3.68418 0.833333 2.72441 0.833333 1.70066V1.21875H0.625C0.279948 1.21875 0 0.945801 0 0.609375ZM2.59844 9.75H7.40104C7.31771 9.63828 7.22396 9.53164 7.1224 9.43262L5 7.36074L2.8776 9.43262C2.77604 9.53164 2.65885 9.63828 2.59844 9.75ZM7.40104 3.25C7.71094 2.80312 7.91667 2.26053 7.91667 1.70066V1.21875H2.08333V1.70066C2.08333 2.26053 2.26562 2.80312 2.59844 3.25H7.40104Z" fill="#1BC738"/>
</g>
<defs>
<clipPath id="clip0_1_767">
<rect width="10" height="13" fill="white"/>
</clipPath>
</defs>
</svg>
