<svg width="55" height="55" viewBox="0 0 55 55" fill="none" xmlns="http://www.w3.org/2000/svg">
<circle cx="27.5" cy="27.5" r="27.5" fill="#1BC738"/>
<mask id="mask0_1_273" style="mask-type:luminance" maskUnits="userSpaceOnUse" x="3" y="32" width="46" height="9">
<path d="M3.79297 32.864H48.1307V40.9537H3.79297V32.864Z" fill="white"/>
</mask>
<g mask="url(#mask0_1_273)">
<path d="M3.79297 38.517C7.56192 37.5058 11.7538 37.8474 16.3529 39.4748C21.1768 41.1824 21.7748 41.2359 26.1442 38.8817C28.7561 37.4742 31.4482 36.3731 34.5778 36.9431C37.321 37.4414 38.0818 38.6592 40.5989 36.4144C45.4629 32.0791 48.5938 35.436 47.0661 40.4969C49.904 36.2588 46.05 29.359 39.7895 35.69C38.0296 37.4694 36.6853 36.3427 34.6678 35.8432C31.4883 35.0592 28.2723 35.989 25.043 37.552C20.9969 39.5088 21.0443 39.6109 16.5 38.2715C11.1364 36.6915 7.05267 36.999 3.79297 38.517Z" fill="white"/>
</g>
<mask id="mask1_1_273" style="mask-type:luminance" maskUnits="userSpaceOnUse" x="36" y="38" width="15" height="5">
<path d="M36.9297 38.1536H50.4644V42.1984H36.9297V38.1536Z" fill="white"/>
</mask>
<g mask="url(#mask1_1_273)">
<path d="M37.1494 38.4317C42.1714 39.4356 46.3002 43.7466 50.4641 41.1858C45.769 42.1788 42.1192 37.903 37.1494 38.4317Z" fill="white"/>
</g>
<path d="M24.5645 28.6284C26.142 31.3606 27.9141 33.6006 29.8624 35.2888C26.9041 34.4636 25.3253 32.0303 24.5645 28.6284Z" fill="white"/>
<path d="M17.8066 38.0635C20.4757 35.7056 20.0965 30.0941 20.1536 27.9659C20.1973 26.3458 20.4599 24.8788 21.9657 24.0049C24.5521 22.5051 24.6542 23.2769 25.3956 20.0342C25.6095 19.0959 25.7797 18.0981 26.024 17.2011C27.3001 12.5146 33.2957 15.0632 31.3729 19.909C30.3836 22.397 27.7814 25.3966 25.8599 22.0652C26.5879 26.2522 30.9949 23.7242 32.2772 20.2797C34.3251 14.7788 26.9343 11.3247 25.3032 17.1112C25.0553 17.9948 24.8669 18.9282 24.6323 19.8203C24.0453 22.0457 23.9882 21.7674 22.0836 22.6012C19.5289 23.7193 19.1715 25.495 19.0852 28.0194C19.0062 30.3639 19.2505 34.873 17.8066 38.0635Z" fill="white"/>
<path d="M37.3705 35.5003C35.5061 33.3162 32.357 33.1084 30.7587 29.7916C29.3562 26.8807 29.4461 25.0551 25.541 24.1533C28.4896 25.5559 28.7375 27.2538 29.6466 29.9666C30.5728 32.7365 35.562 34.2472 37.3705 35.5003Z" fill="white"/>
<path d="M26.2855 14.9807C25.3205 11.9143 29.0918 11.3819 28.7224 14.0363C28.0211 12.3202 26.2527 12.9388 26.2855 14.9807Z" fill="white"/>
</svg>
